<?xml version="1.0" encoding="UTF-8" standalone="no"?>
<!DOCTYPE svg PUBLIC "-//W3C//DTD SVG 1.1//EN"
 "http://www.w3.org/Graphics/SVG/1.1/DTD/svg11.dtd">
<!-- Generated by graphviz version 2.43.0 (0)
 -->
<!-- Title: %3 Pages: 1 -->
<svg width="374pt" height="238pt"
 viewBox="0.00 0.00 374.00 237.74" xmlns="http://www.w3.org/2000/svg" xmlns:xlink="http://www.w3.org/1999/xlink">
<g id="graph0" class="graph" transform="scale(1 1) rotate(0) translate(36 201.74)">
<title>%3</title>
<polygon fill="dimgray" stroke="transparent" points="-36,36 -36,-201.74 338,-201.74 338,36 -36,36"/>
<text text-anchor="middle" x="151" y="-150.54" font-family="Helvetica,sans-Serif" font-size="14.00">Sweep&#39;s Plan &amp; Progress</text>
<!-- start -->
<g id="node1" class="node">
<title>start</title>
</g>
<!-- 04323cf1&#45;57f5&#45;46bc&#45;9677&#45;4de9d18bb6e7 -->
<g id="node3" class="node">
<title>04323cf1&#45;57f5&#45;46bc&#45;9677&#45;4de9d18bb6e7</title>
<ellipse fill="#0ee832" stroke="black" cx="151" cy="-99.87" rx="77.15" ry="26.74"/>
<text text-anchor="middle" x="151" y="-103.67" font-family="Helvetica,sans-Serif" font-size="14.00">✓ Modify</text>
<text text-anchor="middle" x="151" y="-88.67" font-family="Helvetica,sans-Serif" font-size="14.00">src/style.scss</text>
</g>
<!-- start&#45;&gt;04323cf1&#45;57f5&#45;46bc&#45;9677&#45;4de9d18bb6e7 -->
<g id="edge2" class="edge">
<title>start&#45;&gt;04323cf1&#45;57f5&#45;46bc&#45;9677&#45;4de9d18bb6e7</title>
<path fill="none" stroke="black" d="M22.82,-99.87C26.66,-99.87 43.44,-99.87 63.66,-99.87"/>
<polygon fill="black" stroke="black" points="63.82,-103.37 73.82,-99.87 63.82,-96.37 63.82,-103.37"/>
<text text-anchor="middle" x="48.21" y="-106.67" font-family="Helvetica,sans-Serif" font-size="14.00">Start</text>
</g>
<!-- end -->
<g id="node2" class="node">
<title>end</title>
</g>
<!-- 04323cf1&#45;57f5&#45;46bc&#45;9677&#45;4de9d18bb6e7&#45;&gt;end -->
<g id="edge3" class="edge">
<title>04323cf1&#45;57f5&#45;46bc&#45;9677&#45;4de9d18bb6e7&#45;&gt;end</title>
<path fill="none" stroke="black" d="M228.36,-99.87C246.94,-99.87 264.5,-99.87 275.25,-99.87"/>
<polygon fill="black" stroke="black" points="275.3,-103.37 285.3,-99.87 275.3,-96.37 275.3,-103.37"/>
<text text-anchor="middle" x="256.79" y="-106.67" font-family="Helvetica,sans-Serif" font-size="14.00">Finish</text>
</g>
<!-- fa35385c&#45;eb61&#45;4d70&#45;88f0&#45;e0eef1fc0838 -->
<g id="node4" class="node">
<title>fa35385c&#45;eb61&#45;4d70&#45;88f0&#45;e0eef1fc0838</title>
<polygon fill="#0ee832" stroke="black" points="302,-36 0,-36 0,0 302,0 302,-36"/>
<text text-anchor="middle" x="151" y="-14.3" font-family="Helvetica,sans-Serif" font-size="14.00">✓ Run GitHub Actions for `src/style.scss`</text>
</g>
<!-- 04323cf1&#45;57f5&#45;46bc&#45;9677&#45;4de9d18bb6e7&#45;&gt;fa35385c&#45;eb61&#45;4d70&#45;88f0&#45;e0eef1fc0838 -->
<g id="edge1" class="edge">
<title>04323cf1&#45;57f5&#45;46bc&#45;9677&#45;4de9d18bb6e7&#45;&gt;fa35385c&#45;eb61&#45;4d70&#45;88f0&#45;e0eef1fc0838</title>
<path fill="none" stroke="black" stroke-dasharray="5,2" d="M151,-72.72C151,-64.27 151,-54.89 151,-46.36"/>
<polygon fill="black" stroke="black" points="154.5,-46.15 151,-36.15 147.5,-46.15 154.5,-46.15"/>
</g>
</g>
</svg>
